<mxfile host="app.diagrams.net" modified="2024-03-26T14:30:06.000Z" agent="Mozilla/5.0 (Windows NT 10.0; Win64; x64) AppleWebKit/537.36 (KHTML, like Gecko) Chrome/121.0.0.0 Safari/537.36 OPR/107.0.0.0" etag="6jUtOUCeO8Fprd4Yo7SR" version="24.1.0" type="device">
  <diagram name="Page-1" id="ZTP7UnRLJ9N6yZRyNFOW">
    <mxGraphModel dx="2243" dy="1935" grid="1" gridSize="10" guides="1" tooltips="1" connect="1" arrows="1" fold="1" page="1" pageScale="1" pageWidth="850" pageHeight="1100" math="0" shadow="0">
      <root>
        <mxCell id="0" />
        <mxCell id="1" parent="0" />
        <mxCell id="UawCgT2RPEbBGpyVQ__1-9" style="edgeStyle=orthogonalEdgeStyle;rounded=0;orthogonalLoop=1;jettySize=auto;html=1;exitX=0;exitY=1;exitDx=0;exitDy=0;" edge="1" parent="1" source="UawCgT2RPEbBGpyVQ__1-1" target="UawCgT2RPEbBGpyVQ__1-2">
          <mxGeometry relative="1" as="geometry" />
        </mxCell>
        <mxCell id="UawCgT2RPEbBGpyVQ__1-11" style="edgeStyle=orthogonalEdgeStyle;rounded=0;orthogonalLoop=1;jettySize=auto;html=1;exitX=1;exitY=1;exitDx=0;exitDy=0;entryX=0.5;entryY=0;entryDx=0;entryDy=0;" edge="1" parent="1" source="UawCgT2RPEbBGpyVQ__1-1" target="UawCgT2RPEbBGpyVQ__1-3">
          <mxGeometry relative="1" as="geometry" />
        </mxCell>
        <mxCell id="UawCgT2RPEbBGpyVQ__1-25" style="edgeStyle=orthogonalEdgeStyle;rounded=0;orthogonalLoop=1;jettySize=auto;html=1;exitX=0.5;exitY=0;exitDx=0;exitDy=0;entryX=0.5;entryY=1;entryDx=0;entryDy=0;" edge="1" parent="1" source="UawCgT2RPEbBGpyVQ__1-1" target="UawCgT2RPEbBGpyVQ__1-8">
          <mxGeometry relative="1" as="geometry" />
        </mxCell>
        <mxCell id="UawCgT2RPEbBGpyVQ__1-1" value="Targeting&amp;nbsp;&lt;div&gt;Flag&lt;/div&gt;" style="ellipse;whiteSpace=wrap;html=1;aspect=fixed;" vertex="1" parent="1">
          <mxGeometry x="380" y="80" width="80" height="80" as="geometry" />
        </mxCell>
        <mxCell id="UawCgT2RPEbBGpyVQ__1-18" style="edgeStyle=orthogonalEdgeStyle;rounded=0;orthogonalLoop=1;jettySize=auto;html=1;exitX=1;exitY=0.5;exitDx=0;exitDy=0;entryX=0;entryY=1;entryDx=0;entryDy=0;" edge="1" parent="1" source="UawCgT2RPEbBGpyVQ__1-2" target="UawCgT2RPEbBGpyVQ__1-1">
          <mxGeometry relative="1" as="geometry" />
        </mxCell>
        <mxCell id="UawCgT2RPEbBGpyVQ__1-22" style="edgeStyle=orthogonalEdgeStyle;rounded=0;orthogonalLoop=1;jettySize=auto;html=1;exitX=0;exitY=1;exitDx=0;exitDy=0;entryX=0;entryY=0;entryDx=0;entryDy=0;" edge="1" parent="1" source="UawCgT2RPEbBGpyVQ__1-2" target="UawCgT2RPEbBGpyVQ__1-5">
          <mxGeometry relative="1" as="geometry" />
        </mxCell>
        <mxCell id="UawCgT2RPEbBGpyVQ__1-2" value="Retrieving&lt;div&gt;Flag&lt;/div&gt;" style="ellipse;whiteSpace=wrap;html=1;aspect=fixed;" vertex="1" parent="1">
          <mxGeometry x="160" y="240" width="80" height="80" as="geometry" />
        </mxCell>
        <mxCell id="UawCgT2RPEbBGpyVQ__1-15" style="edgeStyle=orthogonalEdgeStyle;rounded=0;orthogonalLoop=1;jettySize=auto;html=1;exitX=0.5;exitY=1;exitDx=0;exitDy=0;entryX=0.5;entryY=0;entryDx=0;entryDy=0;" edge="1" parent="1" source="UawCgT2RPEbBGpyVQ__1-3" target="UawCgT2RPEbBGpyVQ__1-4">
          <mxGeometry relative="1" as="geometry" />
        </mxCell>
        <mxCell id="UawCgT2RPEbBGpyVQ__1-3" value="Chasing&lt;div&gt;Player&lt;/div&gt;" style="ellipse;whiteSpace=wrap;html=1;aspect=fixed;" vertex="1" parent="1">
          <mxGeometry x="600" y="240" width="80" height="80" as="geometry" />
        </mxCell>
        <mxCell id="UawCgT2RPEbBGpyVQ__1-20" style="edgeStyle=orthogonalEdgeStyle;rounded=0;orthogonalLoop=1;jettySize=auto;html=1;exitX=0.5;exitY=1;exitDx=0;exitDy=0;entryX=0.5;entryY=0;entryDx=0;entryDy=0;" edge="1" parent="1" source="UawCgT2RPEbBGpyVQ__1-4" target="UawCgT2RPEbBGpyVQ__1-6">
          <mxGeometry relative="1" as="geometry">
            <mxPoint x="448" y="160" as="targetPoint" />
            <Array as="points" />
          </mxGeometry>
        </mxCell>
        <mxCell id="UawCgT2RPEbBGpyVQ__1-29" style="edgeStyle=orthogonalEdgeStyle;rounded=0;orthogonalLoop=1;jettySize=auto;html=1;exitX=1;exitY=0.5;exitDx=0;exitDy=0;entryX=0;entryY=0.5;entryDx=0;entryDy=0;" edge="1" parent="1" source="UawCgT2RPEbBGpyVQ__1-4" target="UawCgT2RPEbBGpyVQ__1-7">
          <mxGeometry relative="1" as="geometry" />
        </mxCell>
        <mxCell id="UawCgT2RPEbBGpyVQ__1-4" value="Targeting&lt;div&gt;Player&lt;/div&gt;" style="ellipse;whiteSpace=wrap;html=1;aspect=fixed;" vertex="1" parent="1">
          <mxGeometry x="600" y="480" width="80" height="80" as="geometry" />
        </mxCell>
        <mxCell id="UawCgT2RPEbBGpyVQ__1-31" style="edgeStyle=orthogonalEdgeStyle;rounded=0;orthogonalLoop=1;jettySize=auto;html=1;exitX=0.5;exitY=1;exitDx=0;exitDy=0;entryX=0;entryY=0.5;entryDx=0;entryDy=0;" edge="1" parent="1" source="UawCgT2RPEbBGpyVQ__1-5" target="UawCgT2RPEbBGpyVQ__1-6">
          <mxGeometry relative="1" as="geometry" />
        </mxCell>
        <mxCell id="UawCgT2RPEbBGpyVQ__1-36" style="edgeStyle=orthogonalEdgeStyle;rounded=0;orthogonalLoop=1;jettySize=auto;html=1;entryX=0;entryY=0.5;entryDx=0;entryDy=0;" edge="1" parent="1" target="UawCgT2RPEbBGpyVQ__1-5">
          <mxGeometry relative="1" as="geometry">
            <mxPoint x="-150" y="200" as="targetPoint" />
            <mxPoint x="30" y="-170" as="sourcePoint" />
            <Array as="points">
              <mxPoint x="30" y="-169" />
              <mxPoint x="-120" y="-169" />
              <mxPoint x="-120" y="650" />
            </Array>
          </mxGeometry>
        </mxCell>
        <mxCell id="UawCgT2RPEbBGpyVQ__1-45" style="edgeStyle=orthogonalEdgeStyle;rounded=0;orthogonalLoop=1;jettySize=auto;html=1;exitX=0.5;exitY=0;exitDx=0;exitDy=0;entryX=0.5;entryY=1;entryDx=0;entryDy=0;" edge="1" parent="1" source="UawCgT2RPEbBGpyVQ__1-5" target="UawCgT2RPEbBGpyVQ__1-2">
          <mxGeometry relative="1" as="geometry" />
        </mxCell>
        <mxCell id="UawCgT2RPEbBGpyVQ__1-5" value="Running&amp;nbsp;&lt;div&gt;From&amp;nbsp;&lt;span style=&quot;background-color: initial;&quot;&gt;Player&lt;/span&gt;&lt;/div&gt;" style="ellipse;whiteSpace=wrap;html=1;aspect=fixed;" vertex="1" parent="1">
          <mxGeometry x="160" y="610" width="80" height="80" as="geometry" />
        </mxCell>
        <mxCell id="UawCgT2RPEbBGpyVQ__1-42" style="edgeStyle=orthogonalEdgeStyle;rounded=0;orthogonalLoop=1;jettySize=auto;html=1;exitX=0;exitY=0;exitDx=0;exitDy=0;entryX=1;entryY=1;entryDx=0;entryDy=0;" edge="1" parent="1" source="UawCgT2RPEbBGpyVQ__1-6" target="UawCgT2RPEbBGpyVQ__1-2">
          <mxGeometry relative="1" as="geometry">
            <Array as="points">
              <mxPoint x="250" y="682" />
              <mxPoint x="250" y="308" />
            </Array>
          </mxGeometry>
        </mxCell>
        <mxCell id="UawCgT2RPEbBGpyVQ__1-6" value="Retrieving Own Flag" style="ellipse;whiteSpace=wrap;html=1;aspect=fixed;" vertex="1" parent="1">
          <mxGeometry x="600" y="670" width="80" height="80" as="geometry" />
        </mxCell>
        <mxCell id="UawCgT2RPEbBGpyVQ__1-43" style="edgeStyle=orthogonalEdgeStyle;rounded=0;orthogonalLoop=1;jettySize=auto;html=1;exitX=0.5;exitY=1;exitDx=0;exitDy=0;" edge="1" parent="1" source="UawCgT2RPEbBGpyVQ__1-7">
          <mxGeometry relative="1" as="geometry">
            <mxPoint x="680" y="710" as="targetPoint" />
            <Array as="points">
              <mxPoint x="840" y="710" />
            </Array>
          </mxGeometry>
        </mxCell>
        <mxCell id="UawCgT2RPEbBGpyVQ__1-7" value="Fighting For&lt;div&gt;Own Flag&lt;/div&gt;" style="ellipse;whiteSpace=wrap;html=1;aspect=fixed;" vertex="1" parent="1">
          <mxGeometry x="800" y="480" width="80" height="80" as="geometry" />
        </mxCell>
        <mxCell id="UawCgT2RPEbBGpyVQ__1-34" style="edgeStyle=orthogonalEdgeStyle;rounded=0;orthogonalLoop=1;jettySize=auto;html=1;exitX=0;exitY=1;exitDx=0;exitDy=0;entryX=0;entryY=0;entryDx=0;entryDy=0;" edge="1" parent="1" source="UawCgT2RPEbBGpyVQ__1-8" target="UawCgT2RPEbBGpyVQ__1-1">
          <mxGeometry relative="1" as="geometry" />
        </mxCell>
        <mxCell id="UawCgT2RPEbBGpyVQ__1-8" value="DriveBy" style="ellipse;whiteSpace=wrap;html=1;aspect=fixed;" vertex="1" parent="1">
          <mxGeometry x="380" y="-210" width="80" height="80" as="geometry" />
        </mxCell>
        <mxCell id="UawCgT2RPEbBGpyVQ__1-10" value="If both the player and the AI don&#39;t have a flag&lt;div&gt;&lt;br&gt;&lt;div&gt;(if it is closer to the player&#39;s flag than to the player when the player picks up the AI&#39;s flag)&lt;/div&gt;&lt;/div&gt;" style="text;html=1;align=center;verticalAlign=middle;whiteSpace=wrap;rounded=0;" vertex="1" parent="1">
          <mxGeometry x="90" y="70" width="255" height="80" as="geometry" />
        </mxCell>
        <mxCell id="UawCgT2RPEbBGpyVQ__1-13" value="If the player has picked up the AI&#39;s flag&amp;nbsp; while the AI doesn&#39;t have a flag&lt;div&gt;&lt;br&gt;&lt;/div&gt;&lt;div&gt;(If it is closer to the player than it is to the player&#39;s flag when the player picks up the AI&#39;s flag)&lt;/div&gt;" style="text;html=1;align=center;verticalAlign=middle;whiteSpace=wrap;rounded=0;" vertex="1" parent="1">
          <mxGeometry x="480" y="70" width="265" height="80" as="geometry" />
        </mxCell>
        <mxCell id="UawCgT2RPEbBGpyVQ__1-17" value="Once the AI gets close enough to the player it will begin to shoot at the player" style="text;html=1;align=center;verticalAlign=middle;whiteSpace=wrap;rounded=0;" vertex="1" parent="1">
          <mxGeometry x="490" y="350" width="150" height="80" as="geometry" />
        </mxCell>
        <mxCell id="UawCgT2RPEbBGpyVQ__1-21" value="Flag was deposited at the AI&#39;s base" style="text;html=1;align=center;verticalAlign=middle;whiteSpace=wrap;rounded=0;" vertex="1" parent="1">
          <mxGeometry x="240" y="220" width="150" height="80" as="geometry" />
        </mxCell>
        <mxCell id="UawCgT2RPEbBGpyVQ__1-24" value="If the player gets too close to the AI while it is carrying the flag, it will shoot at the player" style="text;html=1;align=center;verticalAlign=middle;whiteSpace=wrap;rounded=0;" vertex="1" parent="1">
          <mxGeometry x="-90" y="410" width="240" height="80" as="geometry" />
        </mxCell>
        <mxCell id="UawCgT2RPEbBGpyVQ__1-28" value="The player is not near the flag and it is not at the AI&#39;s base" style="text;html=1;align=center;verticalAlign=middle;whiteSpace=wrap;rounded=0;" vertex="1" parent="1">
          <mxGeometry x="450" y="600" width="190" height="30" as="geometry" />
        </mxCell>
        <mxCell id="UawCgT2RPEbBGpyVQ__1-30" value="The player is near the flag and the flag is not at the AI&#39;s base" style="text;html=1;align=center;verticalAlign=middle;whiteSpace=wrap;rounded=0;" vertex="1" parent="1">
          <mxGeometry x="850" y="620" width="165" height="30" as="geometry" />
        </mxCell>
        <mxCell id="UawCgT2RPEbBGpyVQ__1-32" value="If neither the player or AI have the flag, it will run towards the player&#39;s flag and shoot at the player at the same time." style="text;html=1;align=center;verticalAlign=middle;whiteSpace=wrap;rounded=0;" vertex="1" parent="1">
          <mxGeometry x="425" y="-70" width="265" height="80" as="geometry" />
        </mxCell>
        <mxCell id="UawCgT2RPEbBGpyVQ__1-33" style="edgeStyle=orthogonalEdgeStyle;rounded=0;orthogonalLoop=1;jettySize=auto;html=1;exitX=0;exitY=0.5;exitDx=0;exitDy=0;entryX=0;entryY=0.588;entryDx=0;entryDy=0;entryPerimeter=0;" edge="1" parent="1" source="UawCgT2RPEbBGpyVQ__1-8" target="UawCgT2RPEbBGpyVQ__1-2">
          <mxGeometry relative="1" as="geometry">
            <Array as="points">
              <mxPoint x="30" y="-170" />
              <mxPoint x="30" y="287" />
            </Array>
          </mxGeometry>
        </mxCell>
        <mxCell id="UawCgT2RPEbBGpyVQ__1-35" value="If the AI picks up the flag and the player is no longer nearby" style="text;html=1;align=center;verticalAlign=middle;whiteSpace=wrap;rounded=0;" vertex="1" parent="1">
          <mxGeometry x="147.5" y="-250" width="140" height="80" as="geometry" />
        </mxCell>
        <mxCell id="UawCgT2RPEbBGpyVQ__1-37" value="If the player is nearby when the AI picks up the Player&#39;s flag" style="text;html=1;align=center;verticalAlign=middle;whiteSpace=wrap;rounded=0;" vertex="1" parent="1">
          <mxGeometry x="-240" y="250" width="115" height="80" as="geometry" />
        </mxCell>
        <mxCell id="UawCgT2RPEbBGpyVQ__1-39" value="If the player is no longer near the AI but it still does not have the flag" style="text;html=1;align=center;verticalAlign=middle;whiteSpace=wrap;rounded=0;" vertex="1" parent="1">
          <mxGeometry x="250" y="-70" width="140" height="80" as="geometry" />
        </mxCell>
        <mxCell id="UawCgT2RPEbBGpyVQ__1-40" value="If the player is killed it will go to retrieve it&#39;s own flag" style="text;html=1;align=center;verticalAlign=middle;whiteSpace=wrap;rounded=0;" vertex="1" parent="1">
          <mxGeometry x="362.5" y="710" width="115" height="80" as="geometry" />
        </mxCell>
        <mxCell id="UawCgT2RPEbBGpyVQ__1-44" value="If the player is no longer around, it returns to it&#39;s own base with the player&#39;s flag" style="text;html=1;align=center;verticalAlign=middle;whiteSpace=wrap;rounded=0;" vertex="1" parent="1">
          <mxGeometry x="250" y="330" width="152.5" height="80" as="geometry" />
        </mxCell>
      </root>
    </mxGraphModel>
  </diagram>
</mxfile>
